<?xml version="1.0" standalone="no"?>
<!DOCTYPE svg PUBLIC "-//W3C//DTD SVG 20010904//EN"
 "http://www.w3.org/TR/2001/REC-SVG-20010904/DTD/svg10.dtd">
<svg version="1.0" xmlns="http://www.w3.org/2000/svg"
 width="939.000000pt" height="277.000000pt" viewBox="0 0 939.000000 277.000000"
 preserveAspectRatio="xMidYMid meet">
<metadata>
Created by potrace 1.16, written by Peter Selinger 2001-2019
</metadata>
<g transform="translate(0.000000,277.000000) scale(0.100000,-0.100000)"
fill="#000000" stroke="none">
<path d="M4317 2613 c-10 -34 -22 -65 -27 -68 -6 -4 -10 -13 -10 -20 0 -19
-100 -185 -111 -185 -5 0 -9 -5 -9 -11 0 -12 -153 -169 -164 -169 -4 0 -16 -8
-27 -18 -10 -11 -32 -25 -47 -33 -15 -8 -33 -20 -40 -26 -7 -7 -18 -13 -24
-13 -6 0 -19 -6 -27 -13 -16 -13 -147 -70 -186 -81 -15 -4 -27 -24 -40 -64
-23 -71 -115 -262 -127 -262 -4 0 -8 -6 -8 -13 0 -8 -33 -49 -73 -91 l-74 -78
61 5 c198 14 441 99 606 210 45 31 200 179 200 191 0 6 38 64 50 76 6 6 34 64
53 110 62 151 82 389 49 575 l-8 40 -17 -62z"/>
<path d="M392 2631 c-19 -52 -16 -336 4 -419 42 -170 111 -302 217 -415 56
-59 182 -157 203 -157 7 0 14 -3 16 -7 2 -5 26 -18 53 -31 28 -13 58 -27 67
-33 10 -5 23 -9 29 -9 6 0 25 -6 42 -14 59 -26 217 -62 330 -74 l67 -8 -42 42
c-62 61 -90 93 -124 144 -43 65 -124 235 -124 260 0 23 -31 70 -46 70 -39 0
-240 102 -323 164 -96 72 -231 215 -231 245 0 6 -4 11 -8 11 -14 0 -108 198
-114 240 -3 24 -4 23 -16 -9z"/>
<path d="M2348 2375 c-9 -27 -18 -59 -21 -70 -8 -29 -64 -179 -75 -201 -5 -11
-22 -44 -36 -74 -73 -153 -142 -247 -243 -327 -18 -15 -30 -29 -25 -32 10 -7
73 -89 89 -116 38 -63 113 -227 113 -247 0 -8 4 -18 9 -23 6 -6 14 -28 20 -50
6 -22 17 -67 26 -100 15 -56 51 -229 76 -369 6 -33 15 -114 21 -180 25 -289
25 -289 27 -41 3 447 22 1439 29 1535 l7 95 8 -145 c4 -80 10 -507 14 -950 5
-443 11 -764 15 -715 12 165 27 309 38 375 27 159 43 239 57 295 22 90 53 197
63 220 5 11 12 31 16 45 9 35 92 218 104 230 3 3 14 21 24 40 11 19 33 52 49
74 28 36 29 39 12 48 -34 20 -131 123 -172 184 -44 65 -143 264 -143 286 0 8
-4 18 -9 23 -4 6 -18 44 -31 85 -12 41 -26 84 -31 95 -4 11 -10 29 -11 40 -3
13 -9 3 -20 -30z"/>
<path d="M1185 2160 c20 -204 138 -442 301 -604 61 -61 151 -133 204 -162 129
-71 282 -221 347 -341 36 -67 43 -81 60 -118 25 -52 77 -222 93 -305 7 -36 16
-108 20 -160 l7 -95 1 100 c1 229 -38 478 -108 685 -33 97 -127 287 -156 315
-5 5 -22 27 -37 47 -26 35 -137 128 -153 128 -10 0 -132 81 -214 143 -96 72
-270 244 -270 266 0 6 -3 11 -7 11 -9 0 -33 39 -71 110 l-24 45 7 -65z"/>
<path d="M3540 2195 c-51 -111 -208 -293 -322 -375 -27 -18 -48 -37 -48 -42 0
-4 -6 -8 -14 -8 -8 0 -16 -3 -18 -7 -5 -11 -66 -53 -77 -53 -5 0 -11 -3 -13
-7 -4 -11 -54 -44 -102 -68 -21 -11 -40 -26 -43 -32 -3 -7 -9 -13 -14 -13 -9
0 -79 -67 -79 -76 0 -3 -8 -14 -18 -25 -28 -29 -93 -143 -125 -218 -44 -102
-66 -174 -106 -353 -20 -88 -51 -359 -50 -436 l2 -77 7 55 c27 204 43 280 81
380 11 30 25 69 31 85 29 78 124 224 199 306 38 40 135 119 148 119 6 0 11 4
11 8 0 5 15 15 33 24 92 44 281 217 349 319 84 126 141 263 173 412 19 89 16
130 -5 82z"/>
<path d="M5193 2132 l-33 -3 0 -300 0 -299 213 2 212 3 3 53 3 52 -144 0
c-165 0 -157 -5 -157 91 l0 59 125 0 125 0 0 48 c0 73 -1 74 -131 70 l-114 -3
0 55 0 55 135 5 135 5 3 53 c3 48 2 52 -20 52 -13 0 -90 1 -173 3 -82 1 -165
1 -182 -1z"/>
<path d="M6038 1878 c-1 -139 -2 -272 -2 -296 -1 -35 3 -44 19 -48 11 -2 103
-3 205 -2 l185 3 3 58 3 57 -136 0 -135 0 0 240 0 240 -70 0 -70 0 -2 -252z"/>
<path d="M6882 1833 l3 -298 68 -3 67 -3 0 301 0 300 -70 0 -70 0 2 -297z"/>
<path d="M7452 2078 l3 -53 90 -5 90 -5 3 -242 2 -243 65 0 65 0 2 243 3 242
86 3 87 3 5 34 c3 18 3 43 0 54 -5 21 -11 21 -255 21 l-249 0 3 -52z"/>
<path d="M8400 1830 l0 -300 210 0 210 0 0 55 0 55 -139 0 c-158 0 -151 -4
-151 91 l0 59 120 0 120 0 0 61 0 60 -117 -3 -118 -3 0 55 0 55 133 3 132 3 0
54 0 55 -200 0 -200 0 0 -300z"/>
<path d="M110 1933 c15 -48 35 -98 41 -103 4 -3 10 -16 14 -29 4 -13 39 -56
79 -96 70 -72 123 -104 221 -134 53 -16 247 -11 253 7 2 6 -2 12 -10 12 -18 0
-148 114 -203 179 l-46 54 -87 2 c-100 2 -140 18 -222 91 -46 43 -48 43 -40
17z"/>
<path d="M4633 1926 c-18 -18 -61 -48 -95 -66 -59 -32 -69 -34 -165 -34 -57
-1 -103 -4 -103 -8 0 -12 -149 -160 -196 -196 -23 -18 -47 -32 -54 -32 -6 0
-10 -6 -8 -12 3 -9 39 -14 122 -16 174 -4 277 33 386 138 53 51 120 147 120
171 0 5 7 21 16 34 9 13 14 31 12 39 -2 12 -11 7 -35 -18z"/>
<path d="M810 1485 c-14 -8 -34 -14 -45 -15 -12 0 -25 -4 -30 -9 -10 -10 -99
-28 -185 -38 -26 -3 -71 2 -106 11 -87 23 -93 20 -43 -16 69 -51 114 -75 204
-112 87 -35 305 -36 403 0 39 14 165 71 182 82 9 6 -25 22 -47 22 -27 0 -234
67 -247 80 -14 14 -57 12 -86 -5z"/>
<path d="M3820 1483 c-19 -8 -43 -19 -52 -24 -18 -9 -69 -23 -157 -43 -30 -7
-56 -17 -58 -22 -4 -13 79 -54 163 -83 34 -11 100 -24 148 -29 187 -18 345 20
503 120 35 22 62 42 60 45 -3 2 -35 -3 -71 -12 -84 -19 -113 -19 -228 1 -98
16 -142 27 -196 50 -41 18 -68 17 -112 -3z"/>
<path d="M1291 1340 c-45 -22 -124 -60 -175 -84 -159 -78 -243 -106 -318 -106
l-41 0 24 -17 c113 -83 253 -116 396 -94 127 20 222 57 248 98 51 77 91 98
184 97 68 -1 84 -5 146 -38 39 -20 85 -48 103 -63 56 -45 35 -14 -47 66 -123
122 -243 181 -366 180 -60 0 -82 -6 -154 -39z"/>
<path d="M3180 1368 c-14 -7 -45 -20 -69 -31 -74 -32 -185 -121 -255 -204 -26
-31 -7 -29 26 2 37 35 154 91 205 100 71 11 127 -3 170 -44 21 -20 48 -48 59
-62 28 -34 115 -67 229 -87 121 -21 230 -6 328 43 38 19 75 42 83 50 14 13 11
15 -29 15 -65 0 -182 41 -352 125 -82 40 -167 80 -189 89 -44 18 -168 21 -206
4z"/>
<path d="M5830 1075 c-47 -21 -70 -52 -70 -98 0 -57 37 -90 120 -106 84 -16
110 -33 110 -71 0 -33 -21 -57 -56 -66 -35 -9 -113 3 -140 21 -31 20 -34 19
-34 -10 0 -30 28 -44 106 -52 97 -10 174 40 174 113 0 69 -20 86 -131 109 -40
9 -78 20 -86 26 -14 12 -17 57 -5 75 25 38 107 45 167 14 22 -11 41 -20 42
-20 2 0 3 11 3 25 0 19 -8 28 -27 36 -49 19 -135 21 -173 4z"/>
<path d="M7475 1072 c-49 -24 -73 -49 -91 -99 -41 -117 10 -245 111 -273 81
-23 185 4 185 47 0 28 3 28 -45 3 -112 -57 -215 10 -215 140 0 130 103 197
215 140 48 -25 45 -25 45 3 0 49 -132 73 -205 39z"/>
<path d="M8150 1079 c-66 -28 -95 -92 -66 -147 17 -33 65 -56 140 -67 78 -12
107 -57 68 -105 -27 -34 -105 -39 -167 -11 -26 11 -49 21 -51 21 -2 0 -4 -11
-4 -25 0 -31 29 -44 111 -52 109 -10 192 56 174 138 -11 50 -43 66 -182 95
-55 11 -70 69 -27 103 34 27 97 27 149 1 48 -25 45 -25 45 5 0 14 -8 29 -20
35 -29 16 -141 22 -170 9z"/>
<path d="M6130 890 l0 -190 120 0 c113 0 120 1 120 20 0 19 -7 20 -100 20
l-100 0 0 75 0 75 100 0 c93 0 100 1 100 20 0 19 -7 20 -100 20 l-100 0 0 55
0 55 100 0 c93 0 100 1 100 20 0 19 -7 20 -120 20 l-120 0 0 -190z"/>
<path d="M6460 890 c0 -183 1 -190 20 -190 18 0 20 7 20 75 l0 75 40 0 c37 0
43 -5 102 -75 51 -62 68 -75 92 -75 33 0 35 -4 -52 97 l-54 62 36 34 c31 30
36 41 36 79 0 80 -46 108 -176 108 l-64 0 0 -190z m168 134 c16 -11 22 -25 22
-52 0 -20 -4 -42 -8 -48 -14 -21 -51 -34 -96 -34 l-46 0 0 75 0 75 53 0 c31 0
61 -6 75 -16z"/>
<path d="M6780 1071 c0 -8 95 -277 122 -343 8 -22 17 -28 42 -28 l31 0 64 178
c35 97 66 183 68 190 3 7 -4 12 -19 12 -22 0 -29 -13 -83 -166 -38 -108 -61
-161 -66 -152 -5 7 -32 82 -61 165 -47 136 -55 153 -75 153 -13 0 -23 -4 -23
-9z"/>
<path d="M7160 1060 c0 -15 7 -20 25 -20 l25 0 0 -150 0 -150 -25 0 c-18 0
-25 -5 -25 -20 0 -18 7 -20 70 -20 63 0 70 2 70 20 0 13 -7 20 -20 20 -19 0
-20 7 -20 150 0 143 1 150 20 150 13 0 20 7 20 20 0 18 -7 20 -70 20 -63 0
-70 -2 -70 -20z"/>
<path d="M7760 890 l0 -190 120 0 c113 0 120 1 120 20 0 19 -7 20 -100 20
l-100 0 0 75 0 75 100 0 c93 0 100 1 100 20 0 19 -7 20 -100 20 l-100 0 0 55
0 55 100 0 c93 0 100 1 100 20 0 19 -7 20 -120 20 l-120 0 0 -190z"/>
</g>
</svg>
